<svg width="17" height="16" viewBox="0 0 17 16" fill="none" xmlns="http://www.w3.org/2000/svg">
<circle cx="8.55383" cy="8" r="8" fill="white"/>
<path d="M16.5538 8C16.5538 3.58125 12.9726 0 8.55383 0C4.13508 0 0.553833 3.58125 0.553833 8C0.553833 12.4187 4.13508 16 8.55383 16C8.60071 16 8.64758 16 8.69446 15.9969V9.77188H6.97571V7.76875H8.69446V6.29375C8.69446 4.58437 9.73821 3.65313 11.2632 3.65313C11.9945 3.65313 12.6226 3.70625 12.8038 3.73125V5.51875H11.7538C10.9257 5.51875 10.7632 5.9125 10.7632 6.49062V7.76562H12.7476L12.4882 9.76875H10.7632V15.6906C14.107 14.7312 16.5538 11.6531 16.5538 8Z" fill="#98CA3E"/>
</svg>
