<svg width="17" height="16" viewBox="0 0 17 16" fill="none" xmlns="http://www.w3.org/2000/svg">
<circle cx="8.59998" cy="8" r="8" fill="white"/>
<path d="M10.1312 8C10.1312 8.8457 9.44568 9.53125 8.59998 9.53125C7.75427 9.53125 7.06873 8.8457 7.06873 8C7.06873 7.1543 7.75427 6.46875 8.59998 6.46875C9.44568 6.46875 10.1312 7.1543 10.1312 8Z" fill="#98CA3E"/>
<path d="M12.1809 5.29079C12.1073 5.09132 11.9899 4.91078 11.8373 4.76259C11.6891 4.61 11.5087 4.49257 11.3091 4.41896C11.1472 4.35609 10.9041 4.28127 10.4562 4.26088C9.97168 4.23878 9.82642 4.23402 8.59985 4.23402C7.37317 4.23402 7.22791 4.23866 6.74353 4.26076C6.29565 4.28127 6.05237 4.35609 5.89062 4.41896C5.69104 4.49257 5.5105 4.61 5.36243 4.76259C5.20984 4.91078 5.09241 5.0912 5.01868 5.29079C4.95581 5.45265 4.88098 5.69594 4.8606 6.14381C4.8385 6.62819 4.83374 6.77345 4.83374 8.00014C4.83374 9.2267 4.8385 9.37196 4.8606 9.85646C4.88098 10.3043 4.95581 10.5475 5.01868 10.7094C5.09241 10.909 5.20972 11.0894 5.3623 11.2376C5.5105 11.3902 5.69092 11.5076 5.8905 11.5812C6.05237 11.6442 6.29565 11.719 6.74353 11.7394C7.22791 11.7615 7.37305 11.7661 8.59973 11.7661C9.82654 11.7661 9.9718 11.7615 10.4561 11.7394C10.9039 11.719 11.1472 11.6442 11.3091 11.5812C11.7097 11.4267 12.0264 11.11 12.1809 10.7094C12.2438 10.5475 12.3186 10.3043 12.3391 9.85646C12.3612 9.37196 12.3658 9.2267 12.3658 8.00014C12.3658 6.77345 12.3612 6.62819 12.3391 6.14381C12.3187 5.69594 12.2439 5.45265 12.1809 5.29079ZM8.59985 10.3589C7.297 10.3589 6.24084 9.30287 6.24084 8.00002C6.24084 6.69716 7.297 5.64113 8.59985 5.64113C9.90259 5.64113 10.9587 6.69716 10.9587 8.00002C10.9587 9.30287 9.90259 10.3589 8.59985 10.3589ZM11.052 6.09914C10.7476 6.09914 10.5007 5.85231 10.5007 5.54787C10.5007 5.24342 10.7476 4.9966 11.052 4.9966C11.3564 4.9966 11.6033 5.24342 11.6033 5.54787C11.6031 5.85231 11.3564 6.09914 11.052 6.09914Z" fill="#98CA3E"/>
<path d="M8.59998 0C4.18237 0 0.599976 3.5824 0.599976 8C0.599976 12.4176 4.18237 16 8.59998 16C13.0176 16 16.6 12.4176 16.6 8C16.6 3.5824 13.0176 0 8.59998 0ZM13.166 9.89392C13.1438 10.3829 13.066 10.7168 12.9525 11.009C12.7139 11.6261 12.2261 12.1139 11.609 12.3525C11.3169 12.4661 10.9829 12.5437 10.494 12.566C10.0042 12.5884 9.84766 12.5938 8.6001 12.5938C7.35242 12.5938 7.19604 12.5884 6.70605 12.566C6.21716 12.5437 5.88318 12.4661 5.59106 12.3525C5.28442 12.2372 5.00684 12.0564 4.77734 11.8226C4.5437 11.5933 4.36292 11.3156 4.24756 11.009C4.13403 10.7169 4.05627 10.3829 4.03406 9.89404C4.01147 9.40405 4.00623 9.24756 4.00623 8C4.00623 6.75244 4.01147 6.59595 4.03394 6.10608C4.05615 5.61707 4.13379 5.2832 4.24731 4.99097C4.36267 4.68445 4.54358 4.40674 4.77734 4.17737C5.00671 3.9436 5.28442 3.76282 5.59094 3.64746C5.88318 3.53394 6.21704 3.4563 6.70605 3.43396C7.19592 3.41162 7.35242 3.40625 8.59998 3.40625C9.84753 3.40625 10.004 3.41162 10.4939 3.43408C10.9829 3.4563 11.3168 3.53394 11.609 3.64734C11.9155 3.7627 12.1932 3.9436 12.4227 4.17737C12.6564 4.40686 12.8373 4.68445 12.9525 4.99097C13.0662 5.2832 13.1438 5.61707 13.1661 6.10608C13.1885 6.59595 13.1937 6.75244 13.1937 8C13.1937 9.24756 13.1885 9.40405 13.166 9.89392Z" fill="#98CA3E"/>
</svg>
