<svg width="17" height="16" viewBox="0 0 17 16" fill="none" xmlns="http://www.w3.org/2000/svg">
<circle cx="8.40002" cy="8" r="8" fill="white"/>
<path d="M8.40002 0C3.98242 0 0.400024 3.5824 0.400024 8C0.400024 12.4176 3.98242 16 8.40002 16C12.8176 16 16.4 12.4176 16.4 8C16.4 3.5824 12.8176 0 8.40002 0ZM6.07532 12.0938H4.12695V6.23206H6.07532V12.0938ZM5.1012 5.43164H5.0885C4.43469 5.43164 4.01184 4.98157 4.01184 4.41907C4.01184 3.84387 4.44763 3.40625 5.11414 3.40625C5.78064 3.40625 6.1908 3.84387 6.20349 4.41907C6.20349 4.98157 5.78064 5.43164 5.1012 5.43164ZM13.1007 12.0938H11.1526V8.95789C11.1526 8.1698 10.8705 7.63232 10.1655 7.63232C9.62732 7.63232 9.30676 7.99487 9.16589 8.34485C9.11438 8.47009 9.10181 8.64514 9.10181 8.82031V12.0938H7.15356C7.15356 12.0938 7.17908 6.78198 7.15356 6.23206H9.10181V7.06201C9.36072 6.6626 9.82397 6.09448 10.8577 6.09448C12.1395 6.09448 13.1007 6.93225 13.1007 8.73267V12.0938Z" fill="#98CA3E"/>
</svg>
